<svg xmlns="http://www.w3.org/2000/svg" xmlns:xlink="http://www.w3.org/1999/xlink" width="500" zoomAndPan="magnify" viewBox="0 0 375 374.999991" height="500" preserveAspectRatio="xMidYMid meet" version="1.0"><defs><g/><clipPath id="id1"><path d="M 123 20.390625 L 252.699219 20.390625 L 252.699219 232.640625 L 123 232.640625 Z M 123 20.390625 " clip-rule="nonzero"/></clipPath></defs><rect x="-37.5" width="450" fill="#ffffff" y="-37.499999" height="449.999989" fill-opacity="1"/><rect x="-37.5" width="450" fill="#ffffff" y="-37.499999" height="449.999989" fill-opacity="1"/><rect x="-37.5" width="450" fill="#ffde59" y="-37.499999" height="449.999989" fill-opacity="1"/><path fill="#a81838" d="M 206.804688 149.324219 C 206.730469 149.640625 206.648438 149.957031 206.566406 150.273438 C 206.648438 149.957031 206.730469 149.640625 206.804688 149.324219 L 200.28125 149.324219 C 196.078125 149.324219 192.675781 152.730469 192.675781 156.929688 L 192.675781 171.605469 C 192.847656 171.46875 193.019531 171.324219 193.191406 171.183594 L 193.191406 160.972656 C 193.191406 156.773438 196.59375 153.367188 200.792969 153.367188 L 205.617188 153.367188 C 203.070312 160.601562 198.539062 166.898438 192.675781 171.605469 L 192.675781 175.25 C 193.269531 174.886719 193.859375 174.511719 194.4375 174.121094 C 197.917969 171.769531 200.976562 168.960938 203.554688 165.777344 C 203.558594 165.777344 203.558594 165.777344 203.558594 165.773438 C 203.726562 165.570312 203.890625 165.363281 204.054688 165.152344 C 204.070312 165.132812 204.085938 165.113281 204.101562 165.089844 C 204.542969 164.519531 204.972656 163.933594 205.386719 163.339844 C 205.441406 163.261719 205.5 163.179688 205.554688 163.097656 C 205.65625 162.949219 205.753906 162.800781 205.855469 162.652344 C 205.929688 162.535156 206.007812 162.421875 206.082031 162.304688 C 206.171875 162.167969 206.261719 162.03125 206.347656 161.894531 C 206.4375 161.75 206.527344 161.605469 206.617188 161.460938 C 206.691406 161.34375 206.761719 161.226562 206.832031 161.113281 C 206.984375 160.855469 207.136719 160.601562 207.285156 160.347656 C 207.335938 160.253906 207.386719 160.160156 207.4375 160.070312 C 207.546875 159.882812 207.648438 159.695312 207.75 159.507812 C 207.808594 159.402344 207.863281 159.296875 207.921875 159.191406 C 208.019531 159.007812 208.113281 158.824219 208.210938 158.636719 C 208.261719 158.539062 208.3125 158.441406 208.363281 158.339844 C 208.480469 158.109375 208.59375 157.878906 208.703125 157.648438 C 208.730469 157.59375 208.757812 157.542969 208.78125 157.488281 C 208.917969 157.199219 209.050781 156.914062 209.179688 156.621094 C 209.214844 156.539062 209.25 156.460938 209.285156 156.378906 C 209.382812 156.164062 209.472656 155.949219 209.566406 155.734375 C 209.609375 155.632812 209.648438 155.53125 209.691406 155.433594 C 209.777344 155.222656 209.863281 155.011719 209.945312 154.800781 C 209.980469 154.710938 210.015625 154.617188 210.054688 154.527344 C 210.167969 154.226562 210.28125 153.925781 210.390625 153.621094 C 210.453125 153.445312 210.511719 153.273438 210.570312 153.097656 C 210.585938 153.046875 210.605469 152.996094 210.621094 152.945312 C 210.660156 152.820312 210.699219 152.699219 210.734375 152.574219 C 210.753906 152.519531 210.769531 152.460938 210.785156 152.40625 C 210.820312 152.285156 210.855469 152.167969 210.886719 152.046875 C 210.902344 151.996094 210.917969 151.941406 210.929688 151.886719 C 210.964844 151.761719 210.996094 151.636719 211.027344 151.515625 C 211.035156 151.46875 211.046875 151.425781 211.058594 151.378906 C 211.09375 151.238281 211.125 151.097656 211.152344 150.957031 C 211.160156 150.929688 211.164062 150.90625 211.167969 150.878906 C 211.277344 150.355469 211.359375 149.835938 211.414062 149.328125 C 211.414062 149.324219 211.414062 149.324219 211.414062 149.324219 L 206.804688 149.324219 " fill-opacity="1" fill-rule="nonzero"/><path fill="#c8194c" d="M 205.617188 153.367188 L 200.792969 153.367188 C 196.59375 153.367188 193.191406 156.773438 193.191406 160.972656 L 193.191406 171.183594 C 193.019531 171.324219 192.847656 171.46875 192.675781 171.605469 C 198.539062 166.898438 203.070312 160.601562 205.617188 153.367188 " fill-opacity="1" fill-rule="nonzero"/><path fill="#a81838" d="M 128.203125 150.347656 C 128.300781 150.679688 128.402344 151.011719 128.507812 151.34375 C 128.511719 151.351562 128.515625 151.363281 128.519531 151.375 C 128.621094 151.691406 128.730469 152.011719 128.839844 152.328125 C 128.847656 152.355469 128.859375 152.382812 128.867188 152.410156 C 128.972656 152.707031 129.078125 153 129.1875 153.292969 C 129.195312 153.316406 129.203125 153.34375 129.214844 153.367188 L 137.242188 153.367188 C 140.472656 153.367188 143.230469 155.382812 144.332031 158.222656 L 144.332031 156.929688 C 144.332031 152.730469 140.929688 149.324219 136.730469 149.324219 L 127.914062 149.324219 C 128.007812 149.664062 128.101562 150.003906 128.203125 150.339844 C 128.203125 150.34375 128.203125 150.34375 128.203125 150.347656 " fill-opacity="1" fill-rule="nonzero"/><path fill="#c8194c" d="M 137.242188 153.367188 L 129.214844 153.367188 C 129.539062 154.226562 129.886719 155.082031 130.265625 155.929688 C 133.417969 162.953125 138.261719 168.878906 144.332031 173.277344 L 144.332031 158.222656 C 143.230469 155.382812 140.472656 153.367188 137.242188 153.367188 " fill-opacity="1" fill-rule="nonzero"/><path fill="#2e271f" d="M 197.992188 127.484375 C 197.996094 127.492188 197.996094 127.496094 198 127.5 C 205.132812 133.035156 212.890625 139.207031 211.96875 148.882812 L 210.308594 148.882812 C 210.308594 148.882812 210.308594 148.882812 210.308594 148.886719 C 210.253906 149.394531 210.171875 149.910156 210.066406 150.4375 C 210.058594 150.464844 210.054688 150.488281 210.046875 150.515625 C 210.019531 150.65625 209.988281 150.796875 209.953125 150.9375 C 209.945312 150.984375 209.933594 151.027344 209.921875 151.074219 C 209.890625 151.195312 209.859375 151.320312 209.824219 151.445312 C 209.8125 151.5 209.796875 151.554688 209.785156 151.605469 C 209.75 151.726562 209.71875 151.84375 209.683594 151.960938 C 209.664062 152.019531 209.648438 152.074219 209.632812 152.132812 C 209.59375 152.253906 209.554688 152.378906 209.515625 152.5 C 209.5 152.554688 209.484375 152.605469 209.464844 152.65625 C 209.40625 152.832031 209.347656 153.003906 209.285156 153.179688 C 209.175781 153.484375 209.0625 153.785156 208.949219 154.082031 C 208.914062 154.175781 208.875 154.269531 208.839844 154.359375 C 208.757812 154.570312 208.671875 154.78125 208.585938 154.992188 C 208.542969 155.089844 208.503906 155.191406 208.460938 155.292969 C 208.371094 155.507812 208.277344 155.722656 208.183594 155.9375 C 208.148438 156.019531 208.113281 156.097656 208.078125 156.179688 C 207.945312 156.46875 207.8125 156.757812 207.675781 157.042969 C 207.652344 157.097656 207.625 157.152344 207.597656 157.207031 C 207.488281 157.4375 207.375 157.667969 207.257812 157.898438 C 207.207031 157.996094 207.15625 158.097656 207.105469 158.195312 C 207.011719 158.382812 206.914062 158.566406 206.816406 158.75 C 206.757812 158.855469 206.703125 158.960938 206.644531 159.066406 C 206.542969 159.253906 206.441406 159.441406 206.335938 159.628906 C 206.28125 159.71875 206.230469 159.8125 206.179688 159.902344 C 206.03125 160.160156 205.878906 160.414062 205.730469 160.667969 C 205.65625 160.785156 205.585938 160.902344 205.511719 161.019531 C 205.421875 161.164062 205.335938 161.308594 205.242188 161.449219 C 205.15625 161.589844 205.066406 161.726562 204.976562 161.863281 C 204.902344 161.980469 204.824219 162.09375 204.75 162.210938 C 204.652344 162.359375 204.550781 162.507812 204.449219 162.65625 C 204.394531 162.738281 204.335938 162.816406 204.28125 162.898438 C 203.867188 163.492188 203.441406 164.078125 202.996094 164.648438 C 202.980469 164.667969 202.964844 164.691406 202.949219 164.710938 C 202.785156 164.921875 202.621094 165.128906 202.457031 165.332031 C 202.457031 165.332031 202.453125 165.335938 202.453125 165.335938 C 199.429688 169.066406 195.765625 172.265625 191.570312 174.808594 L 191.570312 178.636719 C 201.316406 173.285156 208.652344 164.75 212.40625 154.300781 C 214.609375 148.152344 214.019531 142.625 210.597656 137.402344 C 207.855469 133.214844 203.558594 129.730469 199.886719 126.867188 C 199.472656 127.253906 199.058594 127.628906 198.644531 128 L 197.992188 127.484375 " fill-opacity="1" fill-rule="nonzero"/><path fill="#2e271f" d="M 125.207031 148.1875 C 125.890625 151.128906 126.863281 154.027344 128.125 156.84375 C 131.847656 165.140625 137.765625 172.015625 145.214844 176.855469 L 145.214844 172.835938 C 139.144531 168.4375 134.300781 162.511719 131.148438 155.488281 C 130.769531 154.640625 130.421875 153.785156 130.097656 152.925781 C 130.089844 152.902344 130.082031 152.875 130.070312 152.851562 C 129.960938 152.558594 129.855469 152.265625 129.753906 151.96875 C 129.742188 151.941406 129.734375 151.914062 129.722656 151.886719 C 129.613281 151.570312 129.507812 151.25 129.402344 150.929688 C 129.402344 150.921875 129.398438 150.910156 129.394531 150.898438 C 129.289062 150.570312 129.1875 150.238281 129.085938 149.90625 C 129.085938 149.902344 129.085938 149.898438 129.085938 149.898438 C 128.984375 149.5625 128.890625 149.222656 128.800781 148.882812 L 127.09375 148.882812 C 127.035156 148.65625 126.976562 148.425781 126.921875 148.199219 C 126.351562 148.207031 125.78125 148.203125 125.207031 148.1875 " fill-opacity="1" fill-rule="nonzero"/><path fill="#a81838" d="M 169.988281 181.367188 C 170.074219 181.367188 170.15625 181.363281 170.242188 181.363281 C 170.476562 181.363281 170.710938 181.359375 170.941406 181.355469 C 171.125 181.351562 171.304688 181.34375 171.484375 181.339844 C 171.671875 181.332031 171.859375 181.324219 172.046875 181.316406 C 172.25 181.304688 172.457031 181.296875 172.660156 181.285156 C 172.816406 181.273438 172.96875 181.261719 173.121094 181.253906 C 173.351562 181.238281 173.582031 181.21875 173.8125 181.199219 C 173.933594 181.1875 174.054688 181.175781 174.171875 181.164062 C 174.433594 181.140625 174.691406 181.117188 174.949219 181.085938 C 175.011719 181.078125 175.074219 181.070312 175.136719 181.0625 C 176.578125 180.894531 178.011719 180.65625 179.421875 180.347656 L 179.421875 177.585938 C 175.570312 178.796875 171.472656 179.449219 167.21875 179.449219 C 166.382812 179.449219 165.550781 179.421875 164.730469 179.371094 L 164.730469 160.75 C 164.730469 156.550781 168.132812 153.144531 172.332031 153.144531 C 175.5625 153.144531 178.320312 155.160156 179.421875 158.003906 L 179.421875 156.707031 C 179.421875 152.507812 176.015625 149.105469 171.816406 149.105469 C 167.621094 149.105469 164.214844 152.507812 164.214844 156.707031 L 164.214844 180.984375 C 166.078125 181.230469 167.960938 181.359375 169.855469 181.367188 C 169.898438 181.367188 169.941406 181.367188 169.988281 181.367188 " fill-opacity="1" fill-rule="nonzero"/><path fill="#2e271f" d="M 179.421875 180.125 C 178.011719 180.433594 176.578125 180.671875 175.136719 180.84375 C 175.074219 180.851562 175.011719 180.859375 174.949219 180.867188 C 174.691406 180.894531 174.433594 180.921875 174.171875 180.945312 C 174.054688 180.957031 173.933594 180.96875 173.8125 180.976562 C 173.582031 181 173.351562 181.015625 173.121094 181.03125 C 172.96875 181.042969 172.816406 181.054688 172.660156 181.0625 C 172.457031 181.074219 172.25 181.085938 172.046875 181.09375 C 171.953125 181.101562 171.859375 181.105469 171.769531 181.109375 C 171.671875 181.113281 171.578125 181.113281 171.484375 181.117188 C 171.304688 181.125 171.125 181.128906 170.941406 181.132812 C 170.710938 181.136719 170.476562 181.140625 170.242188 181.144531 C 170.15625 181.144531 170.074219 181.148438 169.988281 181.148438 C 169.941406 181.148438 169.898438 181.144531 169.855469 181.144531 C 167.960938 181.140625 166.078125 181.011719 164.214844 180.765625 L 164.214844 184.105469 C 166.117188 184.339844 168.03125 184.460938 169.960938 184.460938 C 170.609375 184.460938 171.253906 184.449219 171.902344 184.421875 C 174.445312 184.320312 176.957031 184.007812 179.421875 183.507812 L 179.421875 180.125 " fill-opacity="1" fill-rule="nonzero"/><path fill="#c8194c" d="M 172.332031 153.144531 C 168.132812 153.144531 164.730469 156.550781 164.730469 160.75 L 164.730469 179.371094 C 165.550781 179.421875 166.382812 179.449219 167.21875 179.449219 C 171.472656 179.449219 175.570312 178.796875 179.421875 177.585938 L 179.421875 158.003906 C 178.320312 155.160156 175.5625 153.144531 172.332031 153.144531 " fill-opacity="1" fill-rule="nonzero"/><path fill="#87823b" d="M 249.390625 33.988281 C 249.390625 35.347656 248.734375 36.636719 247.648438 37.457031 L 245.660156 37.355469 C 246.671875 36.152344 247.773438 34.152344 247.773438 31.710938 L 247.773438 25.835938 C 247.773438 25.40625 247.710938 24.992188 247.59375 24.601562 C 248.679688 25.390625 249.390625 26.671875 249.390625 28.113281 Z M 245.046875 22.113281 C 241.746094 22.113281 239.046875 24.8125 239.046875 28.113281 L 239.046875 33.988281 C 239.046875 35.953125 240.003906 37.707031 241.472656 38.800781 L 242.6875 38.863281 C 243.011719 38.292969 243.664062 37.949219 244.351562 38.046875 C 244.710938 38.09375 245.023438 38.257812 245.265625 38.488281 C 245.550781 37.824219 246.253906 37.398438 247.007812 37.496094 C 247.769531 37.597656 248.339844 38.203125 248.433594 38.9375 C 250.007812 37.851562 251.046875 36.035156 251.046875 33.988281 L 251.046875 28.113281 C 251.046875 24.8125 248.347656 22.113281 245.046875 22.113281 " fill-opacity="1" fill-rule="nonzero"/><path fill="#777233" d="M 247.59375 24.601562 C 247.710938 24.992188 247.773438 25.40625 247.773438 25.835938 L 247.773438 31.710938 C 247.773438 34.152344 246.671875 36.152344 245.660156 37.355469 L 247.648438 37.457031 C 248.734375 36.636719 249.390625 35.347656 249.390625 33.988281 L 249.390625 28.113281 C 249.390625 26.671875 248.679688 25.390625 247.59375 24.601562 " fill-opacity="1" fill-rule="nonzero"/><path fill="#532d12" d="M 191.019531 204.75 C 191.019531 207.492188 188.789062 209.722656 186.046875 209.722656 C 183.433594 209.722656 181.285156 207.691406 181.09375 205.121094 C 182.632812 205.675781 184.351562 205.777344 186.046875 205.304688 C 188.253906 204.691406 189.992188 203.234375 191.019531 201.378906 Z M 183.066406 157.59375 C 183.066406 154.378906 181.421875 151.542969 178.929688 149.882812 C 183.058594 150.8125 186.152344 154.507812 186.152344 158.914062 L 186.152344 200.320312 C 186.152344 202.964844 183.066406 202.976562 183.066406 200.332031 Z M 175.148438 98.792969 C 166.441406 98.792969 158.015625 101.382812 150.777344 106.285156 C 143.378906 111.296875 137.777344 118.382812 134.585938 126.769531 C 131.695312 134.371094 128.449219 133.472656 131.503906 125.449219 C 134.691406 117.058594 140.292969 109.976562 147.691406 104.964844 C 154.929688 100.0625 163.355469 97.46875 172.0625 97.46875 C 177.328125 97.46875 179.921875 98.792969 175.148438 98.792969 Z M 162.558594 224.289062 C 162.558594 227.03125 160.328125 229.261719 157.585938 229.261719 C 154.972656 229.261719 152.824219 227.230469 152.632812 224.660156 C 154.171875 225.214844 155.890625 225.3125 157.585938 224.84375 C 159.792969 224.230469 161.53125 222.773438 162.558594 220.914062 Z M 157.691406 214.449219 L 157.691406 219.738281 C 157.691406 222.289062 154.605469 222.515625 154.605469 219.871094 L 154.605469 215.515625 C 156.144531 215.40625 157.691406 214.449219 157.691406 214.449219 Z M 150.203125 209.664062 C 147.941406 209.320312 146.175781 207.441406 146.003906 205.121094 C 147.546875 205.675781 149.265625 205.777344 150.960938 205.304688 C 153.164062 204.691406 154.902344 203.234375 155.929688 201.378906 L 155.929688 204.75 C 155.929688 207.492188 153.699219 209.722656 150.960938 209.722656 C 150.703125 209.722656 150.449219 209.703125 150.203125 209.664062 Z M 147.976562 157.59375 C 147.976562 154.378906 146.332031 151.542969 143.839844 149.882812 C 147.96875 150.8125 151.0625 154.507812 151.0625 158.914062 L 151.0625 200.222656 C 151.0625 202.671875 147.976562 202.976562 147.976562 200.332031 Z M 189.773438 124.769531 C 191.046875 126.382812 192.484375 127.910156 193.945312 129.433594 L 193.949219 129.4375 C 194.582031 130.097656 194.5625 131.152344 193.898438 131.789062 C 193.234375 132.421875 192.183594 132.398438 191.550781 131.738281 C 191.492188 131.679688 191.4375 131.609375 191.390625 131.546875 C 190.152344 129.792969 188.910156 128.003906 187.808594 126.089844 C 187.261719 125.132812 186.75 124.140625 186.328125 123.097656 C 185.90625 122.058594 185.570312 120.964844 185.410156 119.832031 C 185.355469 119.445312 185.625 119.085938 186.011719 119.027344 C 186.367188 118.980469 186.695312 119.195312 186.792969 119.527344 L 186.796875 119.542969 C 187.082031 120.492188 187.511719 121.398438 188.023438 122.265625 C 188.539062 123.132812 189.132812 123.964844 189.773438 124.769531 Z M 211.488281 148.332031 L 206.789062 148.296875 C 207.527344 143.890625 207.21875 138.785156 205.839844 136.527344 C 209.058594 139.847656 211.445312 143.652344 211.488281 148.332031 Z M 192.675781 175.914062 L 192.675781 157.59375 C 192.675781 153.394531 196.078125 149.988281 200.28125 149.988281 L 213.074219 149.988281 C 213.996094 140.308594 206.238281 134.140625 199.101562 128.605469 C 199.101562 128.597656 199.101562 128.59375 199.097656 128.589844 L 196.699219 126.6875 C 196.765625 126.914062 196.832031 127.144531 196.90625 127.367188 C 196.167969 126.785156 189.796875 121.515625 188.523438 117.488281 C 186.761719 111.902344 190.972656 107.835938 187.949219 99.753906 C 192.410156 103.203125 193.535156 109.988281 194.710938 117.117188 C 195.078125 119.324219 195.449219 121.570312 195.933594 123.738281 C 196.335938 123.363281 196.738281 122.984375 197.136719 122.597656 C 200.332031 121.699219 203.394531 120.328125 205.660156 117.808594 L 205.65625 117.804688 L 203.964844 117.074219 L 202.910156 116.617188 C 201.046875 118.683594 199.183594 120.617188 197.339844 122.402344 C 196.34375 117.585938 195.804688 112.308594 194.496094 107.730469 C 193.066406 102.734375 190.722656 98.5625 185.867188 96.714844 C 162.617188 87.863281 136.597656 99.542969 127.75 122.800781 C 124.3125 131.835938 123.976562 141.289062 126.207031 149.988281 L 136.730469 149.988281 C 140.929688 149.988281 144.332031 153.394531 144.332031 157.59375 L 144.332031 204.75 C 144.332031 208.398438 147.316406 211.378906 150.960938 211.378906 L 150.960938 224.289062 C 150.960938 227.9375 153.941406 230.917969 157.585938 230.917969 C 161.230469 230.917969 164.214844 227.9375 164.214844 224.289062 L 164.214844 157.59375 C 164.214844 153.394531 167.621094 149.988281 171.816406 149.988281 C 176.015625 149.988281 179.421875 153.394531 179.421875 157.59375 L 179.421875 204.75 C 179.421875 208.398438 182.402344 211.378906 186.046875 211.378906 C 189.695312 211.378906 192.675781 208.398438 192.675781 204.75 L 192.675781 175.914062 " fill-opacity="1" fill-rule="nonzero"/><path fill="#3e200c" d="M 206.789062 148.296875 L 211.488281 148.332031 C 211.445312 143.652344 209.058594 139.847656 205.839844 136.527344 C 207.21875 138.785156 207.527344 143.890625 206.789062 148.296875 " fill-opacity="1" fill-rule="nonzero"/><path fill="#915d3a" d="M 172.0625 97.46875 C 163.355469 97.46875 154.929688 100.0625 147.691406 104.964844 C 140.292969 109.976562 134.691406 117.058594 131.503906 125.449219 C 128.449219 133.472656 131.695312 134.371094 134.585938 126.769531 C 137.777344 118.382812 143.378906 111.296875 150.777344 106.285156 C 158.015625 101.382812 166.441406 98.792969 175.148438 98.792969 C 179.921875 98.792969 177.328125 97.46875 172.0625 97.46875 " fill-opacity="1" fill-rule="nonzero"/><path fill="#915d3a" d="M 151.0625 200.222656 L 151.0625 158.914062 C 151.0625 154.507812 147.96875 150.8125 143.839844 149.882812 C 146.332031 151.542969 147.976562 154.378906 147.976562 157.59375 L 147.976562 200.332031 C 147.976562 202.976562 151.0625 202.671875 151.0625 200.222656 " fill-opacity="1" fill-rule="nonzero"/><path fill="#915d3a" d="M 154.605469 219.871094 C 154.605469 222.515625 157.691406 222.289062 157.691406 219.738281 L 157.691406 214.449219 C 157.691406 214.449219 156.144531 215.40625 154.605469 215.515625 L 154.605469 219.871094 " fill-opacity="1" fill-rule="nonzero"/><path fill="#915d3a" d="M 186.152344 200.320312 L 186.152344 158.914062 C 186.152344 154.507812 183.058594 150.8125 178.929688 149.882812 C 181.421875 151.542969 183.066406 154.378906 183.066406 157.59375 L 183.066406 200.332031 C 183.066406 202.976562 186.152344 202.964844 186.152344 200.320312 " fill-opacity="1" fill-rule="nonzero"/><path fill="#3e200c" d="M 157.585938 224.84375 C 155.890625 225.3125 154.171875 225.214844 152.632812 224.660156 C 152.824219 227.230469 154.972656 229.261719 157.585938 229.261719 C 160.328125 229.261719 162.558594 227.03125 162.558594 224.289062 L 162.558594 220.914062 C 161.53125 222.773438 159.792969 224.230469 157.585938 224.84375 " fill-opacity="1" fill-rule="nonzero"/><path fill="#3e200c" d="M 186.046875 205.304688 C 184.351562 205.777344 182.632812 205.675781 181.09375 205.121094 C 181.285156 207.691406 183.433594 209.722656 186.046875 209.722656 C 188.789062 209.722656 191.019531 207.492188 191.019531 204.75 L 191.019531 201.378906 C 189.992188 203.234375 188.253906 204.691406 186.046875 205.304688 " fill-opacity="1" fill-rule="nonzero"/><path fill="#3e200c" d="M 155.929688 204.75 L 155.929688 201.378906 C 154.902344 203.234375 153.164062 204.691406 150.960938 205.304688 C 149.265625 205.777344 147.546875 205.675781 146.003906 205.121094 C 146.175781 207.441406 147.941406 209.320312 150.203125 209.664062 C 150.449219 209.703125 150.703125 209.722656 150.960938 209.722656 C 153.699219 209.722656 155.929688 207.492188 155.929688 204.75 " fill-opacity="1" fill-rule="nonzero"/><path fill="#45a43b" d="M 229.421875 84.085938 C 237.910156 67.511719 243.496094 51.472656 245.148438 38.921875 C 245.167969 38.769531 245.207031 38.621094 245.269531 38.488281 C 245.023438 38.257812 244.710938 38.09375 244.351562 38.042969 C 243.664062 37.949219 243.015625 38.292969 242.6875 38.863281 C 242.585938 39.042969 242.515625 39.242188 242.484375 39.457031 C 240.785156 51.734375 235.484375 67.21875 227.941406 81.945312 C 221.621094 94.289062 213.234375 106.519531 204.332031 116.390625 C 204.148438 116.59375 204.03125 116.828125 203.964844 117.074219 L 205.65625 117.804688 C 215.976562 106.070312 223.972656 94.726562 229.421875 84.085938 " fill-opacity="1" fill-rule="nonzero"/><path fill="#3c8e32" d="M 247.007812 37.496094 C 246.253906 37.398438 245.550781 37.820312 245.269531 38.488281 C 245.207031 38.621094 245.167969 38.769531 245.148438 38.921875 C 243.496094 51.472656 237.910156 67.511719 229.421875 84.085938 C 223.972656 94.726562 215.976562 106.070312 205.65625 117.804688 L 205.660156 117.808594 L 208.851562 119.191406 C 219.011719 107.53125 226.921875 96.234375 232.371094 85.597656 C 241.027344 68.695312 246.734375 52.273438 248.433594 39.355469 C 248.449219 39.210938 248.449219 39.074219 248.433594 38.933594 C 248.339844 38.203125 247.769531 37.597656 247.007812 37.496094 " fill-opacity="1" fill-rule="nonzero"/><path fill="#3e200c" d="M 205.660156 117.808594 C 203.394531 120.328125 200.332031 121.699219 197.136719 122.597656 C 196.738281 122.984375 196.335938 123.363281 195.933594 123.738281 C 195.449219 121.570312 195.078125 119.324219 194.710938 117.117188 C 193.535156 109.988281 192.410156 103.203125 187.949219 99.753906 C 190.972656 107.835938 186.761719 111.902344 188.523438 117.488281 C 189.796875 121.515625 196.167969 126.785156 196.90625 127.367188 C 196.832031 127.144531 196.765625 126.914062 196.699219 126.6875 L 199.097656 128.589844 L 199.746094 129.105469 C 200.164062 128.734375 200.578125 128.359375 200.992188 127.972656 C 203.777344 125.398438 206.574219 122.523438 209.332031 119.398438 L 208.851562 119.191406 L 205.660156 117.808594 " fill-opacity="1" fill-rule="nonzero"/><path fill="#915d3a" d="M 186.796875 119.542969 L 186.792969 119.527344 C 186.695312 119.195312 186.367188 118.980469 186.011719 119.027344 C 185.625 119.085938 185.355469 119.445312 185.410156 119.832031 C 185.570312 120.964844 185.90625 122.058594 186.328125 123.097656 C 186.75 124.140625 187.261719 125.132812 187.808594 126.089844 C 188.910156 128.003906 190.152344 129.792969 191.390625 131.546875 C 191.4375 131.609375 191.492188 131.679688 191.550781 131.738281 C 192.183594 132.398438 193.234375 132.421875 193.898438 131.789062 C 194.5625 131.152344 194.582031 130.097656 193.949219 129.4375 L 193.945312 129.433594 C 192.484375 127.910156 191.046875 126.382812 189.773438 124.769531 C 189.132812 123.964844 188.539062 123.132812 188.023438 122.265625 C 187.511719 121.398438 187.082031 120.492188 186.796875 119.542969 " fill-opacity="1" fill-rule="nonzero"/><g clip-path="url(#id1)"><path fill="#2e271f" d="M 231.1875 84.085938 C 224.742188 96.667969 216.757812 108.5 208.089844 118.304688 C 205.308594 121.449219 202.507812 124.328125 199.738281 126.878906 L 197.316406 124.722656 C 199.523438 122.667969 201.683594 120.453125 204.140625 117.726562 C 213.230469 107.648438 221.789062 95.164062 228.242188 82.574219 C 235.644531 68.121094 240.9375 52.90625 242.890625 40.535156 L 245.214844 40.652344 L 246.21875 40.703125 C 244.246094 53.5 238.820312 69.1875 231.1875 84.085938 Z M 211.488281 148.332031 L 200.277344 148.332031 C 195.171875 148.332031 191.019531 152.484375 191.019531 157.59375 L 191.019531 204.753906 C 191.019531 207.492188 188.789062 209.722656 186.046875 209.722656 C 183.308594 209.722656 181.078125 207.492188 181.078125 204.753906 L 181.078125 157.59375 C 181.078125 152.484375 176.921875 148.332031 171.816406 148.332031 C 166.710938 148.332031 162.558594 152.484375 162.558594 157.59375 L 162.558594 224.289062 C 162.558594 227.03125 160.328125 229.261719 157.585938 229.261719 C 154.847656 229.261719 152.617188 227.03125 152.617188 224.289062 L 152.617188 212.890625 C 154.4375 212.535156 156.140625 211.554688 157.34375 210.132812 C 158.132812 209.21875 158.703125 208.113281 159.023438 206.941406 L 159.136719 206.5 C 159.171875 206.351562 159.1875 206.203125 159.210938 206.050781 L 159.277344 205.601562 L 159.304688 205.148438 C 159.308594 205 159.320312 204.832031 159.320312 204.703125 L 159.316406 204.34375 L 159.3125 203.625 C 159.304688 201.703125 159.273438 199.78125 159.25 197.859375 C 159.222656 195.933594 159.148438 194.011719 158.875 192.09375 C 158.796875 191.535156 158.355469 191.070312 157.769531 190.988281 C 157.058594 190.882812 156.398438 191.378906 156.296875 192.09375 C 156.023438 194.011719 155.953125 195.933594 155.921875 197.859375 C 155.898438 199.78125 155.871094 201.703125 155.863281 203.625 L 155.855469 204.34375 L 155.855469 204.703125 C 155.851562 204.816406 155.84375 204.890625 155.839844 204.984375 L 155.828125 205.25 L 155.785156 205.511719 C 155.769531 205.597656 155.761719 205.6875 155.742188 205.769531 L 155.671875 206.027344 C 155.484375 206.707031 155.160156 207.355469 154.695312 207.898438 C 154.234375 208.441406 153.664062 208.894531 153.027344 209.210938 C 152.386719 209.523438 151.683594 209.695312 150.960938 209.722656 C 148.21875 209.722656 145.988281 207.492188 145.988281 204.753906 L 145.988281 157.59375 C 145.988281 152.484375 141.835938 148.332031 136.730469 148.332031 L 127.511719 148.332031 C 125.632812 140.011719 126.246094 131.417969 129.296875 123.390625 C 137.804688 101.027344 162.917969 89.753906 185.277344 98.261719 C 192.019531 100.828125 193.328125 108.742188 194.710938 117.117188 C 194.96875 118.6875 195.234375 120.277344 195.539062 121.847656 C 195.089844 122.269531 194.640625 122.683594 194.1875 123.09375 C 194.164062 123.074219 194.136719 123.054688 194.113281 123.035156 C 193.164062 122.289062 192.257812 121.503906 191.433594 120.65625 C 190.601562 119.808594 189.882812 118.882812 189.328125 117.871094 L 189.316406 117.847656 C 189.144531 117.539062 188.769531 117.398438 188.433594 117.53125 C 188.070312 117.671875 187.890625 118.085938 188.035156 118.449219 C 188.519531 119.691406 189.203125 120.839844 189.988281 121.875 C 190.769531 122.917969 191.636719 123.878906 192.527344 124.792969 C 193.425781 125.707031 194.355469 126.574219 195.285156 127.421875 C 196.21875 128.269531 197.152344 129.089844 198.085938 129.914062 C 198.136719 129.957031 198.199219 130.003906 198.253906 130.046875 C 198.253906 130.046875 198.253906 130.046875 198.257812 130.046875 C 204.484375 134.875 211.414062 140.324219 211.488281 148.332031 Z M 240.703125 28.117188 C 240.703125 25.71875 242.652344 23.769531 245.046875 23.769531 C 247.441406 23.769531 249.390625 25.71875 249.390625 28.117188 L 249.390625 33.988281 C 249.390625 35.347656 248.734375 36.636719 247.648438 37.457031 L 242.105469 37.175781 C 241.21875 36.355469 240.703125 35.195312 240.703125 33.988281 Z M 245.046875 20.457031 C 240.824219 20.457031 237.386719 23.890625 237.386719 28.117188 L 237.386719 33.988281 C 237.386719 36.046875 238.238281 38.027344 239.703125 39.460938 C 237.878906 51.589844 232.65625 66.6875 225.289062 81.0625 C 218.96875 93.402344 210.585938 105.636719 201.679688 115.507812 C 200.527344 116.789062 199.445312 117.945312 198.390625 119.027344 C 198.253906 118.222656 198.117188 117.40625 197.980469 116.574219 C 196.503906 107.644531 194.976562 98.410156 186.457031 95.164062 C 162.390625 86.003906 135.359375 98.140625 126.199219 122.210938 C 122.75 131.28125 122.199219 141.03125 124.601562 150.402344 C 124.792969 151.132812 125.453125 151.648438 126.207031 151.648438 L 136.730469 151.648438 C 140.007812 151.648438 142.675781 154.3125 142.675781 157.59375 L 142.675781 204.753906 C 142.675781 208.753906 145.527344 212.101562 149.300781 212.871094 L 149.300781 224.289062 C 149.300781 228.859375 153.019531 232.578125 157.585938 232.578125 C 162.15625 232.578125 165.871094 228.859375 165.871094 224.289062 L 165.871094 157.59375 C 165.871094 154.3125 168.539062 151.648438 171.816406 151.648438 C 175.097656 151.648438 177.765625 154.3125 177.765625 157.59375 L 177.765625 204.753906 C 177.765625 209.320312 181.480469 213.039062 186.046875 213.039062 C 190.617188 213.039062 194.332031 209.320312 194.332031 204.753906 L 194.332031 157.59375 C 194.332031 154.3125 197 151.648438 200.277344 151.648438 L 213.070312 151.648438 C 213.925781 151.648438 214.640625 150.996094 214.722656 150.148438 C 215.640625 140.523438 208.761719 134.125 202.308594 129.007812 C 205.054688 126.457031 207.828125 123.605469 210.574219 120.5 C 219.417969 110.492188 227.566406 98.425781 234.136719 85.597656 C 242.144531 69.964844 247.777344 53.433594 249.65625 40.09375 C 251.550781 38.652344 252.703125 36.382812 252.703125 33.988281 L 252.703125 28.117188 C 252.703125 23.890625 249.265625 20.457031 245.046875 20.457031 " fill-opacity="1" fill-rule="nonzero"/></g><g fill="#000000" fill-opacity="1"><g transform="translate(78.654395, 297.601944)"><g><path d="M 1.855469 -8.628906 C 2.246094 -6.347656 3.289062 -4.265625 4.429688 -2.277344 C 5.144531 -1.007812 6.089844 0.0664062 7.261719 0.976562 C 7.847656 1.433594 8.464844 1.886719 9.246094 2.050781 C 11.753906 2.636719 13.933594 2.179688 15.691406 0.164062 C 16.148438 -0.324219 16.570312 -0.847656 16.929688 -1.433594 C 17.613281 -2.472656 18.199219 -3.582031 18.785156 -4.6875 C 19.828125 -6.640625 20.933594 -8.5625 21.878906 -10.582031 C 22.140625 -11.167969 22.074219 -11.296875 21.421875 -11.460938 C 21.03125 -11.523438 20.773438 -11.425781 20.609375 -11.070312 C 20.480469 -10.839844 20.347656 -10.582031 20.21875 -10.351562 C 18.6875 -7.421875 17.058594 -4.589844 15.335938 -1.789062 C 14.714844 -0.8125 14.03125 0.0976562 13.054688 0.714844 C 11.523438 1.691406 9.703125 1.367188 8.628906 -0.0976562 C 8.140625 -0.78125 7.78125 -1.496094 7.488281 -2.277344 C 6.640625 -4.394531 6.285156 -6.578125 6.089844 -8.824219 C 5.828125 -12.113281 5.992188 -15.335938 7.097656 -18.460938 C 7.488281 -19.5 7.945312 -20.511719 8.628906 -21.390625 C 9.277344 -22.269531 10.15625 -22.59375 11.199219 -22.300781 C 12.4375 -21.945312 13.382812 -21.195312 14.097656 -20.121094 C 14.519531 -19.46875 14.8125 -18.753906 15.007812 -18.035156 C 15.105469 -17.644531 15.335938 -17.484375 15.757812 -17.484375 C 16.898438 -17.484375 17.058594 -17.613281 17.058594 -18.816406 C 17.058594 -18.980469 17.058594 -19.175781 17.058594 -19.371094 C 16.863281 -23.832031 12.242188 -26.109375 8.886719 -24.742188 C 6.640625 -23.832031 4.917969 -22.367188 3.710938 -20.25 C 2.214844 -17.613281 1.5625 -14.847656 1.628906 -11.851562 C 1.660156 -10.777344 1.660156 -9.703125 1.855469 -8.628906 Z M 1.855469 -8.628906 "/></g></g></g><g fill="#000000" fill-opacity="1"><g transform="translate(97.666326, 297.601944)"><g><path d="M 4.039062 -10.058594 C 4.234375 -12.761719 4.460938 -15.433594 4.625 -18.132812 C 4.785156 -20.511719 4.949219 -22.921875 5.046875 -25.296875 C 5.113281 -26.535156 5.078125 -26.566406 3.808594 -26.535156 C 1.921875 -26.535156 1.886719 -26.535156 1.53125 -24.679688 C 0.78125 -21.066406 0.261719 -17.417969 0 -13.738281 C -0.261719 -10.484375 -0.292969 -7.226562 0.0664062 -4.003906 C 0.195312 -2.960938 0.359375 -1.921875 0.617188 -0.910156 C 0.78125 -0.292969 1.203125 0 1.824219 0.03125 C 2.082031 0.03125 2.375 0.03125 2.636719 0 C 3.125 -0.03125 3.417969 -0.261719 3.449219 -0.8125 C 3.582031 -1.824219 3.777344 -2.800781 4.003906 -3.777344 C 4.785156 -7.261719 6.285156 -10.386719 8.203125 -13.347656 C 8.464844 -13.707031 8.726562 -14.226562 9.246094 -14.128906 C 9.832031 -13.96875 9.636719 -13.382812 9.667969 -12.925781 C 9.703125 -10.191406 9.734375 -7.488281 9.800781 -4.753906 C 9.800781 -3.710938 9.863281 -2.667969 9.996094 -1.628906 C 10.15625 -0.714844 10.351562 0.195312 10.777344 1.007812 C 11.035156 1.496094 11.363281 1.886719 11.917969 2.019531 C 13.089844 2.246094 14.164062 2.082031 15.007812 1.105469 C 15.628906 0.359375 16.082031 -0.457031 16.507812 -1.335938 C 17.644531 -3.777344 18.523438 -6.347656 19.46875 -8.855469 C 19.761719 -9.636719 19.730469 -9.636719 18.949219 -9.863281 C 18.394531 -9.996094 18.230469 -9.765625 18.070312 -9.34375 C 17.289062 -7.488281 16.507812 -5.664062 15.726562 -3.839844 C 15.238281 -2.636719 14.75 -1.464844 14.066406 -0.359375 C 13.804688 0.0976562 13.578125 0.554688 13.089844 0.847656 C 12.796875 0.457031 12.730469 0.03125 12.632812 -0.390625 C 12.40625 -1.660156 12.273438 -2.960938 12.273438 -4.234375 C 12.273438 -6.445312 12.273438 -8.660156 12.273438 -10.875 C 12.273438 -11.980469 12.175781 -13.089844 11.820312 -14.128906 C 11.394531 -15.496094 10.191406 -16.082031 8.824219 -15.660156 C 8.203125 -15.464844 7.683594 -15.074219 7.226562 -14.617188 C 6.542969 -13.933594 5.992188 -13.152344 5.503906 -12.339844 C 5.046875 -11.589844 4.625 -10.808594 4.167969 -10.058594 C 4.136719 -10.058594 4.070312 -10.058594 4.039062 -10.058594 Z M 4.039062 -10.058594 "/></g></g></g><g fill="#000000" fill-opacity="1"><g transform="translate(114.985413, 297.601944)"><g><path d="M 13.640625 -9.441406 C 13.121094 -9.800781 12.859375 -9.800781 12.535156 -9.410156 C 12.210938 -9.019531 11.949219 -8.628906 11.65625 -8.238281 C 10.289062 -6.316406 8.855469 -4.429688 7.324219 -2.636719 C 7.066406 -2.3125 6.804688 -2.019531 6.445312 -1.789062 C 5.957031 -1.464844 5.566406 -1.496094 5.144531 -1.953125 C 4.882812 -2.246094 4.65625 -2.605469 4.558594 -2.960938 C 4.003906 -4.722656 3.582031 -6.511719 3.515625 -8.367188 C 3.515625 -8.824219 3.644531 -9.019531 4.101562 -9.148438 C 6.640625 -9.898438 8.042969 -11.621094 8.433594 -14.195312 C 8.628906 -15.628906 8.203125 -16.832031 7 -17.679688 C 5.828125 -18.492188 4.558594 -18.328125 3.351562 -17.644531 C 2.277344 -16.996094 1.496094 -16.050781 0.910156 -14.945312 C -0.0664062 -13.054688 -0.457031 -11.035156 -0.554688 -8.921875 C -0.585938 -8.238281 -0.488281 -7.585938 -0.359375 -6.902344 C -0.0664062 -5.078125 0.585938 -3.386719 1.789062 -1.921875 C 3.289062 -0.0976562 7.03125 0.488281 8.886719 -2.019531 C 10.515625 -4.199219 12.113281 -6.414062 13.640625 -8.691406 C 13.804688 -8.921875 14.03125 -9.179688 13.640625 -9.441406 Z M 4.070312 -13.445312 C 4.265625 -14.261719 4.558594 -15.074219 4.882812 -15.855469 C 4.980469 -16.117188 5.144531 -16.410156 5.46875 -16.375 C 5.761719 -16.34375 5.894531 -16.082031 6.023438 -15.824219 C 6.023438 -15.757812 6.054688 -15.691406 6.054688 -15.628906 C 6.609375 -13.933594 5.601562 -11.230469 4.070312 -10.320312 C 3.941406 -10.222656 3.777344 -10.15625 3.546875 -10.222656 C 3.546875 -11.296875 3.808594 -12.371094 4.070312 -13.445312 Z M 4.070312 -13.445312 "/></g></g></g><g fill="#000000" fill-opacity="1"><g transform="translate(127.258526, 297.601944)"><g><path d="M 6.25 -15.726562 C 5.4375 -11.980469 5.046875 -8.203125 5.078125 -4.394531 C 5.078125 -2.375 5.40625 -0.421875 6.414062 1.398438 C 6.609375 1.757812 6.835938 2.117188 7.128906 2.441406 C 8.042969 3.515625 10.808594 3.582031 11.980469 2.441406 C 12.925781 1.496094 13.675781 0.421875 14.292969 -0.75 C 15.757812 -3.484375 16.703125 -6.445312 17.582031 -9.410156 C 17.679688 -9.765625 17.777344 -10.125 17.839844 -10.484375 C 17.90625 -10.644531 17.9375 -10.808594 17.777344 -10.90625 C 17.417969 -11.132812 17.027344 -11.101562 16.636719 -11.101562 C 16.34375 -11.101562 16.277344 -10.777344 16.214844 -10.546875 C 15.726562 -9.214844 15.203125 -7.847656 14.75 -6.480469 C 14.097656 -4.492188 13.382812 -2.472656 12.308594 -0.652344 C 11.785156 0.226562 11.230469 1.074219 10.449219 1.757812 C 9.929688 2.214844 9.734375 2.179688 9.507812 1.496094 C 9.117188 0.359375 8.984375 -0.847656 8.921875 -2.050781 C 8.824219 -4.917969 8.984375 -7.75 9.410156 -10.582031 C 9.667969 -12.242188 9.960938 -13.902344 10.15625 -15.59375 C 10.320312 -16.800781 9.863281 -17.289062 8.628906 -17.289062 C 7.78125 -17.289062 6.902344 -17.289062 6.054688 -17.351562 C 5.308594 -17.386719 4.558594 -17.484375 3.941406 -17.839844 C 3.222656 -18.265625 2.472656 -18.296875 1.726562 -18.394531 C 1.238281 -18.460938 0.945312 -18.328125 0.878906 -17.808594 C 0.847656 -17.546875 0.78125 -17.320312 0.75 -17.09375 C 0.652344 -15.59375 0.488281 -14.097656 0.390625 -12.566406 C 0.226562 -9.375 -0.0976562 -6.21875 -0.617188 -3.058594 C -0.78125 -2.246094 -0.910156 -1.433594 -0.910156 -0.617188 C -0.910156 -0.390625 -0.945312 -0.195312 -0.683594 -0.0664062 C 0.195312 0.292969 0.714844 0.03125 0.945312 -0.847656 C 0.945312 -0.945312 0.976562 -1.042969 0.976562 -1.140625 C 1.921875 -5.371094 2.605469 -9.636719 2.863281 -13.96875 C 2.929688 -14.878906 3.027344 -15.789062 3.09375 -16.800781 C 4.167969 -16.507812 5.210938 -16.472656 6.285156 -16.34375 C 6.382812 -16.050781 6.285156 -15.886719 6.25 -15.726562 Z M 6.25 -15.726562 "/></g></g></g><g fill="#000000" fill-opacity="1"><g transform="translate(142.819663, 297.601944)"><g><path d="M 6.25 -15.726562 C 5.4375 -11.980469 5.046875 -8.203125 5.078125 -4.394531 C 5.078125 -2.375 5.40625 -0.421875 6.414062 1.398438 C 6.609375 1.757812 6.835938 2.117188 7.128906 2.441406 C 8.042969 3.515625 10.808594 3.582031 11.980469 2.441406 C 12.925781 1.496094 13.675781 0.421875 14.292969 -0.75 C 15.757812 -3.484375 16.703125 -6.445312 17.582031 -9.410156 C 17.679688 -9.765625 17.777344 -10.125 17.839844 -10.484375 C 17.90625 -10.644531 17.9375 -10.808594 17.777344 -10.90625 C 17.417969 -11.132812 17.027344 -11.101562 16.636719 -11.101562 C 16.34375 -11.101562 16.277344 -10.777344 16.214844 -10.546875 C 15.726562 -9.214844 15.203125 -7.847656 14.75 -6.480469 C 14.097656 -4.492188 13.382812 -2.472656 12.308594 -0.652344 C 11.785156 0.226562 11.230469 1.074219 10.449219 1.757812 C 9.929688 2.214844 9.734375 2.179688 9.507812 1.496094 C 9.117188 0.359375 8.984375 -0.847656 8.921875 -2.050781 C 8.824219 -4.917969 8.984375 -7.75 9.410156 -10.582031 C 9.667969 -12.242188 9.960938 -13.902344 10.15625 -15.59375 C 10.320312 -16.800781 9.863281 -17.289062 8.628906 -17.289062 C 7.78125 -17.289062 6.902344 -17.289062 6.054688 -17.351562 C 5.308594 -17.386719 4.558594 -17.484375 3.941406 -17.839844 C 3.222656 -18.265625 2.472656 -18.296875 1.726562 -18.394531 C 1.238281 -18.460938 0.945312 -18.328125 0.878906 -17.808594 C 0.847656 -17.546875 0.78125 -17.320312 0.75 -17.09375 C 0.652344 -15.59375 0.488281 -14.097656 0.390625 -12.566406 C 0.226562 -9.375 -0.0976562 -6.21875 -0.617188 -3.058594 C -0.78125 -2.246094 -0.910156 -1.433594 -0.910156 -0.617188 C -0.910156 -0.390625 -0.945312 -0.195312 -0.683594 -0.0664062 C 0.195312 0.292969 0.714844 0.03125 0.945312 -0.847656 C 0.945312 -0.945312 0.976562 -1.042969 0.976562 -1.140625 C 1.921875 -5.371094 2.605469 -9.636719 2.863281 -13.96875 C 2.929688 -14.878906 3.027344 -15.789062 3.09375 -16.800781 C 4.167969 -16.507812 5.210938 -16.472656 6.285156 -16.34375 C 6.382812 -16.050781 6.285156 -15.886719 6.25 -15.726562 Z M 6.25 -15.726562 "/></g></g></g><g fill="#000000" fill-opacity="1"><g transform="translate(158.380799, 297.601944)"><g><path d="M 12.828125 -8.398438 C 13.023438 -11.425781 13.023438 -14.488281 12.925781 -17.546875 C 12.925781 -17.90625 12.859375 -18.265625 12.828125 -18.621094 C 12.796875 -19.078125 12.566406 -19.242188 12.175781 -19.207031 C 11.6875 -19.144531 11.167969 -19.011719 10.644531 -19.046875 C 9.960938 -19.046875 9.570312 -18.6875 9.441406 -17.972656 C 9.375 -17.710938 9.277344 -17.484375 9.179688 -17.253906 C 8.042969 -14.164062 7.066406 -11.003906 5.46875 -8.171875 C 5.210938 -7.683594 4.949219 -7.226562 4.65625 -6.804688 C 4.265625 -6.285156 3.972656 -6.347656 3.742188 -6.96875 C 3.449219 -7.75 3.417969 -8.59375 3.386719 -9.441406 C 3.289062 -12.242188 3.484375 -15.042969 3.839844 -17.808594 C 3.90625 -18.425781 4.003906 -19.011719 4.101562 -19.632812 C 4.167969 -20.089844 3.972656 -20.316406 3.546875 -20.25 C 3.027344 -20.1875 2.507812 -20.152344 2.019531 -20.089844 C 0.976562 -19.992188 0.910156 -19.957031 0.683594 -18.785156 C 0.0976562 -15.789062 -0.195312 -12.761719 -0.128906 -9.667969 C -0.0976562 -8.464844 0.0664062 -7.226562 0.585938 -6.089844 C 0.976562 -5.175781 1.59375 -4.625 2.472656 -4.429688 C 4.070312 -4.101562 5.40625 -4.492188 6.382812 -6.023438 C 7.226562 -7.324219 7.945312 -8.691406 8.5625 -10.125 C 8.660156 -10.386719 8.691406 -10.710938 9.082031 -10.839844 C 8.886719 -8.757812 8.726562 -6.738281 8.53125 -4.722656 C 8.496094 -4.296875 8.300781 -4.003906 7.945312 -3.839844 C 7.359375 -3.515625 6.738281 -3.15625 6.152344 -2.800781 C 4.65625 -1.921875 3.253906 -0.910156 2.117188 0.488281 C 1.464844 1.269531 0.976562 2.148438 0.683594 3.191406 C 0.128906 5.40625 1.042969 7.226562 2.996094 7.75 C 5.046875 8.238281 6.871094 7.78125 8.433594 6.121094 C 9.34375 5.113281 10.058594 3.941406 10.644531 2.667969 C 11.621094 0.519531 12.175781 -1.789062 12.503906 -4.167969 C 12.601562 -4.6875 12.761719 -5.015625 13.152344 -5.273438 C 14.585938 -6.25 15.855469 -7.488281 16.960938 -8.921875 C 17.125 -9.117188 17.289062 -9.277344 17.386719 -9.507812 C 17.679688 -10.027344 17.222656 -10.289062 16.996094 -10.582031 C 16.800781 -10.875 16.605469 -10.613281 16.441406 -10.449219 C 16.019531 -9.996094 15.628906 -9.507812 15.203125 -9.082031 C 14.488281 -8.335938 13.773438 -7.617188 12.828125 -7.03125 C 12.828125 -7.585938 12.796875 -7.976562 12.828125 -8.398438 Z M 8.074219 -1.789062 C 7.652344 0.554688 7.164062 2.863281 6.023438 4.917969 C 5.828125 5.273438 5.601562 5.566406 5.339844 5.828125 C 4.492188 6.609375 3.546875 6.316406 3.191406 5.175781 C 2.960938 4.429688 3.027344 3.679688 3.289062 2.929688 C 3.582031 2.050781 4.039062 1.269531 4.65625 0.585938 C 5.601562 -0.488281 6.738281 -1.269531 7.945312 -2.050781 C 8.042969 -1.855469 8.074219 -1.824219 8.074219 -1.789062 Z M 8.074219 -1.789062 "/></g></g></g><g fill="#000000" fill-opacity="1"><g transform="translate(174.202381, 297.601944)"><g><path d="M 5.210938 -16.117188 C 5.371094 -16.410156 5.535156 -16.703125 5.796875 -16.929688 C 6.089844 -17.222656 6.382812 -17.222656 6.675781 -16.960938 C 7.066406 -16.605469 7.359375 -16.148438 7.585938 -15.691406 C 7.8125 -15.105469 8.042969 -14.554688 8.269531 -13.96875 C 8.367188 -13.707031 8.496094 -13.542969 8.789062 -13.609375 C 9.050781 -13.640625 9.277344 -13.675781 9.507812 -13.738281 C 9.832031 -13.804688 9.996094 -14 9.929688 -14.324219 C 9.832031 -15.433594 9.539062 -16.507812 8.789062 -17.386719 C 7.945312 -18.363281 6.871094 -18.785156 5.601562 -18.558594 C 4.429688 -18.328125 3.484375 -17.742188 2.636719 -16.929688 C 1.398438 -15.691406 0.585938 -14.164062 0.195312 -12.46875 C -0.226562 -10.808594 -0.261719 -9.117188 -0.128906 -7.421875 C 0 -5.503906 0.390625 -3.613281 1.300781 -1.855469 C 1.726562 -1.074219 2.214844 -0.324219 2.898438 0.261719 C 5.015625 2.179688 8.203125 1.726562 9.667969 -0.714844 C 9.960938 -1.171875 10.191406 -1.628906 10.417969 -2.117188 C 11.070312 -3.484375 11.71875 -4.882812 12.371094 -6.285156 C 12.828125 -7.292969 13.285156 -8.335938 13.738281 -9.375 C 13.933594 -9.765625 13.871094 -10.027344 13.445312 -10.15625 C 13.316406 -10.222656 13.1875 -10.289062 13.023438 -10.351562 C 12.761719 -10.484375 12.566406 -10.449219 12.4375 -10.15625 C 12.371094 -10.027344 12.308594 -9.898438 12.242188 -9.734375 C 11.132812 -7.324219 9.929688 -4.949219 8.691406 -2.570312 C 8.269531 -1.726562 7.75 -0.910156 7.097656 -0.226562 C 6.640625 0.292969 6.1875 0.261719 5.828125 -0.324219 C 5.40625 -0.976562 5.113281 -1.691406 4.851562 -2.410156 C 4.039062 -4.753906 3.777344 -7.195312 3.710938 -8.824219 C 3.710938 -12.4375 4.101562 -14.261719 5.210938 -16.117188 Z M 5.210938 -16.117188 "/></g></g></g><g fill="#000000" fill-opacity="1"><g transform="translate(186.442947, 297.601944)"><g><path d="M 6.25 -15.726562 C 5.4375 -11.980469 5.046875 -8.203125 5.078125 -4.394531 C 5.078125 -2.375 5.40625 -0.421875 6.414062 1.398438 C 6.609375 1.757812 6.835938 2.117188 7.128906 2.441406 C 8.042969 3.515625 10.808594 3.582031 11.980469 2.441406 C 12.925781 1.496094 13.675781 0.421875 14.292969 -0.75 C 15.757812 -3.484375 16.703125 -6.445312 17.582031 -9.410156 C 17.679688 -9.765625 17.777344 -10.125 17.839844 -10.484375 C 17.90625 -10.644531 17.9375 -10.808594 17.777344 -10.90625 C 17.417969 -11.132812 17.027344 -11.101562 16.636719 -11.101562 C 16.34375 -11.101562 16.277344 -10.777344 16.214844 -10.546875 C 15.726562 -9.214844 15.203125 -7.847656 14.75 -6.480469 C 14.097656 -4.492188 13.382812 -2.472656 12.308594 -0.652344 C 11.785156 0.226562 11.230469 1.074219 10.449219 1.757812 C 9.929688 2.214844 9.734375 2.179688 9.507812 1.496094 C 9.117188 0.359375 8.984375 -0.847656 8.921875 -2.050781 C 8.824219 -4.917969 8.984375 -7.75 9.410156 -10.582031 C 9.667969 -12.242188 9.960938 -13.902344 10.15625 -15.59375 C 10.320312 -16.800781 9.863281 -17.289062 8.628906 -17.289062 C 7.78125 -17.289062 6.902344 -17.289062 6.054688 -17.351562 C 5.308594 -17.386719 4.558594 -17.484375 3.941406 -17.839844 C 3.222656 -18.265625 2.472656 -18.296875 1.726562 -18.394531 C 1.238281 -18.460938 0.945312 -18.328125 0.878906 -17.808594 C 0.847656 -17.546875 0.78125 -17.320312 0.75 -17.09375 C 0.652344 -15.59375 0.488281 -14.097656 0.390625 -12.566406 C 0.226562 -9.375 -0.0976562 -6.21875 -0.617188 -3.058594 C -0.78125 -2.246094 -0.910156 -1.433594 -0.910156 -0.617188 C -0.910156 -0.390625 -0.945312 -0.195312 -0.683594 -0.0664062 C 0.195312 0.292969 0.714844 0.03125 0.945312 -0.847656 C 0.945312 -0.945312 0.976562 -1.042969 0.976562 -1.140625 C 1.921875 -5.371094 2.605469 -9.636719 2.863281 -13.96875 C 2.929688 -14.878906 3.027344 -15.789062 3.09375 -16.800781 C 4.167969 -16.507812 5.210938 -16.472656 6.285156 -16.34375 C 6.382812 -16.050781 6.285156 -15.886719 6.25 -15.726562 Z M 6.25 -15.726562 "/></g></g></g><g fill="#000000" fill-opacity="1"><g transform="translate(202.004084, 297.601944)"><g><path d="M 13.640625 -9.441406 C 13.121094 -9.800781 12.859375 -9.800781 12.535156 -9.410156 C 12.210938 -9.019531 11.949219 -8.628906 11.65625 -8.238281 C 10.289062 -6.316406 8.855469 -4.429688 7.324219 -2.636719 C 7.066406 -2.3125 6.804688 -2.019531 6.445312 -1.789062 C 5.957031 -1.464844 5.566406 -1.496094 5.144531 -1.953125 C 4.882812 -2.246094 4.65625 -2.605469 4.558594 -2.960938 C 4.003906 -4.722656 3.582031 -6.511719 3.515625 -8.367188 C 3.515625 -8.824219 3.644531 -9.019531 4.101562 -9.148438 C 6.640625 -9.898438 8.042969 -11.621094 8.433594 -14.195312 C 8.628906 -15.628906 8.203125 -16.832031 7 -17.679688 C 5.828125 -18.492188 4.558594 -18.328125 3.351562 -17.644531 C 2.277344 -16.996094 1.496094 -16.050781 0.910156 -14.945312 C -0.0664062 -13.054688 -0.457031 -11.035156 -0.554688 -8.921875 C -0.585938 -8.238281 -0.488281 -7.585938 -0.359375 -6.902344 C -0.0664062 -5.078125 0.585938 -3.386719 1.789062 -1.921875 C 3.289062 -0.0976562 7.03125 0.488281 8.886719 -2.019531 C 10.515625 -4.199219 12.113281 -6.414062 13.640625 -8.691406 C 13.804688 -8.921875 14.03125 -9.179688 13.640625 -9.441406 Z M 4.070312 -13.445312 C 4.265625 -14.261719 4.558594 -15.074219 4.882812 -15.855469 C 4.980469 -16.117188 5.144531 -16.410156 5.46875 -16.375 C 5.761719 -16.34375 5.894531 -16.082031 6.023438 -15.824219 C 6.023438 -15.757812 6.054688 -15.691406 6.054688 -15.628906 C 6.609375 -13.933594 5.601562 -11.230469 4.070312 -10.320312 C 3.941406 -10.222656 3.777344 -10.15625 3.546875 -10.222656 C 3.546875 -11.296875 3.808594 -12.371094 4.070312 -13.445312 Z M 4.070312 -13.445312 "/></g></g></g><g fill="#000000" fill-opacity="1"><g transform="translate(214.277196, 297.601944)"><g><path d="M 17.449219 -9.117188 C 16.929688 -9.34375 16.832031 -9.3125 16.507812 -8.660156 C 15.789062 -7.261719 15.140625 -5.828125 14.421875 -4.460938 C 13.578125 -2.800781 12.761719 -1.140625 11.6875 0.359375 C 11.523438 0.617188 11.394531 0.945312 11.035156 1.042969 C 10.839844 0.652344 10.839844 0.292969 10.839844 -0.0976562 C 10.808594 -1.367188 10.839844 -2.667969 10.9375 -3.941406 C 11.132812 -7.421875 11.328125 -10.875 11.363281 -14.359375 C 11.363281 -14.75 11.363281 -15.140625 11.265625 -15.53125 C 11.199219 -15.726562 11.132812 -15.921875 10.90625 -15.921875 C 9.996094 -15.921875 9.082031 -16.019531 8.203125 -15.726562 C 7.910156 -15.628906 7.714844 -15.59375 7.421875 -15.660156 C 6.707031 -15.824219 5.992188 -15.953125 5.242188 -15.789062 C 2.960938 -15.367188 1.5625 -13.902344 0.683594 -11.882812 C -0.0664062 -10.191406 -0.292969 -8.398438 -0.164062 -6.578125 C -0.128906 -5.699219 0.03125 -4.820312 0.390625 -3.972656 C 0.714844 -3.125 1.367188 -2.765625 2.246094 -2.765625 C 2.960938 -2.734375 3.582031 -2.996094 4.070312 -3.515625 C 4.527344 -4.039062 4.949219 -4.625 5.308594 -5.242188 C 5.664062 -5.859375 6.023438 -6.480469 6.414062 -7.128906 C 6.640625 -6.933594 6.542969 -6.738281 6.578125 -6.578125 C 6.640625 -5.308594 6.675781 -4.003906 6.902344 -2.734375 C 7.097656 -1.335938 7.359375 0.0664062 8.042969 1.335938 C 8.953125 3.027344 11.328125 3.320312 12.632812 1.886719 C 13.121094 1.367188 13.511719 0.78125 13.835938 0.128906 C 15.238281 -2.570312 16.570312 -5.339844 17.808594 -8.140625 C 18.101562 -8.789062 18.070312 -8.855469 17.449219 -9.117188 Z M 7.421875 -13.347656 C 7.390625 -12.992188 7.324219 -12.601562 7.164062 -12.273438 C 6.054688 -9.667969 4.851562 -7.128906 3.386719 -4.722656 C 3.15625 -4.363281 2.996094 -3.808594 2.472656 -3.941406 C 1.953125 -4.070312 2.214844 -4.65625 2.148438 -5.046875 C 2.148438 -5.210938 2.148438 -5.40625 2.148438 -5.601562 C 2.214844 -7.945312 2.667969 -10.222656 3.941406 -12.273438 C 4.296875 -12.828125 4.6875 -13.382812 5.175781 -13.871094 C 5.4375 -14.128906 5.730469 -14.324219 6.121094 -14.421875 C 6.96875 -14.652344 7.519531 -14.226562 7.421875 -13.347656 Z M 7.421875 -13.347656 "/></g></g></g><g fill="#000000" fill-opacity="1"><g transform="translate(231.042859, 297.601944)"><g><path d="M 25.6875 -9.703125 C 25.328125 -9.863281 25.035156 -9.863281 24.839844 -9.441406 C 24.710938 -9.117188 24.546875 -8.757812 24.386719 -8.433594 C 23.539062 -6.707031 22.691406 -4.949219 21.652344 -3.320312 C 21.421875 -2.996094 21.195312 -2.667969 20.871094 -2.441406 C 20.578125 -2.214844 20.316406 -2.214844 20.054688 -2.507812 C 19.730469 -2.898438 19.566406 -3.351562 19.46875 -3.839844 C 19.273438 -5.210938 19.078125 -6.578125 19.046875 -7.945312 C 19.011719 -8.953125 18.882812 -9.960938 18.621094 -10.9375 C 18.070312 -12.859375 16.507812 -13.445312 14.847656 -12.371094 C 14.554688 -12.175781 14.292969 -11.980469 14.066406 -11.753906 C 13.414062 -11.132812 12.925781 -10.449219 12.46875 -9.734375 C 12.308594 -9.507812 12.242188 -9.214844 11.917969 -9.082031 C 11.851562 -9.996094 11.785156 -10.875 11.71875 -11.71875 C 11.621094 -12.894531 11.425781 -14.066406 10.972656 -15.140625 C 10.125 -17.253906 8.140625 -17.9375 6.152344 -16.832031 C 5.210938 -16.3125 4.527344 -15.53125 3.90625 -14.683594 C 3.777344 -14.457031 3.679688 -14.164062 3.320312 -13.933594 C 3.320312 -14.226562 3.320312 -14.359375 3.320312 -14.519531 C 3.386719 -15.5625 3.320312 -16.605469 3.253906 -17.644531 C 3.191406 -18.425781 3.191406 -18.460938 2.375 -18.425781 C 1.921875 -18.394531 1.496094 -18.296875 1.074219 -18.328125 C 0.585938 -18.328125 0.359375 -18.101562 0.292969 -17.644531 C 0.261719 -17.484375 0.226562 -17.351562 0.226562 -17.191406 C -0.457031 -12.925781 -0.714844 -8.660156 -0.457031 -4.332031 C -0.421875 -3.222656 -0.324219 -2.082031 -0.0976562 -0.945312 C 0 -0.324219 0.0976562 -0.261719 0.75 -0.226562 C 1.203125 -0.195312 1.660156 -0.195312 2.117188 -0.195312 C 2.765625 -0.226562 2.800781 -0.261719 2.863281 -0.878906 C 2.898438 -1.496094 2.996094 -2.117188 3.027344 -2.703125 C 3.15625 -6.121094 4.167969 -9.34375 5.273438 -12.535156 C 5.566406 -13.382812 5.957031 -14.195312 6.480469 -14.910156 C 6.675781 -15.203125 6.871094 -15.464844 7.164062 -15.660156 C 7.617188 -15.984375 8.007812 -15.921875 8.300781 -15.398438 C 8.59375 -14.878906 8.757812 -14.261719 8.886719 -13.675781 C 9.34375 -11.65625 9.441406 -9.605469 9.441406 -7.519531 C 9.472656 -5.632812 9.441406 -3.742188 9.441406 -1.824219 C 9.441406 -1.042969 9.472656 -1.007812 10.289062 -0.945312 C 11.851562 -0.847656 11.589844 -0.75 11.882812 -2.148438 C 12.308594 -4.265625 12.894531 -6.347656 13.773438 -8.367188 C 14.128906 -9.246094 14.617188 -9.996094 15.300781 -10.644531 C 15.628906 -10.972656 15.824219 -10.90625 15.953125 -10.484375 C 16.117188 -10.058594 16.214844 -9.605469 16.246094 -9.148438 C 16.410156 -7.945312 16.539062 -6.773438 16.832031 -5.601562 C 17.058594 -4.558594 17.386719 -3.515625 17.90625 -2.570312 C 18.785156 -0.976562 21 -0.75 22.042969 -2.019531 C 22.300781 -2.34375 22.628906 -2.667969 22.855469 -3.027344 C 24.191406 -4.851562 25.003906 -6.933594 25.851562 -9.019531 C 25.949219 -9.277344 26.046875 -9.570312 25.6875 -9.703125 Z M 25.6875 -9.703125 "/></g></g></g><g fill="#000000" fill-opacity="1"><g transform="translate(255.393767, 297.601944)"><g/></g></g><g fill="#000000" fill-opacity="1"><g transform="translate(265.615938, 297.601944)"><g><path d="M 5.210938 -16.117188 C 5.371094 -16.410156 5.535156 -16.703125 5.796875 -16.929688 C 6.089844 -17.222656 6.382812 -17.222656 6.675781 -16.960938 C 7.066406 -16.605469 7.359375 -16.148438 7.585938 -15.691406 C 7.8125 -15.105469 8.042969 -14.554688 8.269531 -13.96875 C 8.367188 -13.707031 8.496094 -13.542969 8.789062 -13.609375 C 9.050781 -13.640625 9.277344 -13.675781 9.507812 -13.738281 C 9.832031 -13.804688 9.996094 -14 9.929688 -14.324219 C 9.832031 -15.433594 9.539062 -16.507812 8.789062 -17.386719 C 7.945312 -18.363281 6.871094 -18.785156 5.601562 -18.558594 C 4.429688 -18.328125 3.484375 -17.742188 2.636719 -16.929688 C 1.398438 -15.691406 0.585938 -14.164062 0.195312 -12.46875 C -0.226562 -10.808594 -0.261719 -9.117188 -0.128906 -7.421875 C 0 -5.503906 0.390625 -3.613281 1.300781 -1.855469 C 1.726562 -1.074219 2.214844 -0.324219 2.898438 0.261719 C 5.015625 2.179688 8.203125 1.726562 9.667969 -0.714844 C 9.960938 -1.171875 10.191406 -1.628906 10.417969 -2.117188 C 11.070312 -3.484375 11.71875 -4.882812 12.371094 -6.285156 C 12.828125 -7.292969 13.285156 -8.335938 13.738281 -9.375 C 13.933594 -9.765625 13.871094 -10.027344 13.445312 -10.15625 C 13.316406 -10.222656 13.1875 -10.289062 13.023438 -10.351562 C 12.761719 -10.484375 12.566406 -10.449219 12.4375 -10.15625 C 12.371094 -10.027344 12.308594 -9.898438 12.242188 -9.734375 C 11.132812 -7.324219 9.929688 -4.949219 8.691406 -2.570312 C 8.269531 -1.726562 7.75 -0.910156 7.097656 -0.226562 C 6.640625 0.292969 6.1875 0.261719 5.828125 -0.324219 C 5.40625 -0.976562 5.113281 -1.691406 4.851562 -2.410156 C 4.039062 -4.753906 3.777344 -7.195312 3.710938 -8.824219 C 3.710938 -12.4375 4.101562 -14.261719 5.210938 -16.117188 Z M 5.210938 -16.117188 "/></g></g></g><g fill="#000000" fill-opacity="1"><g transform="translate(277.856515, 297.601944)"><g><path d="M 7.976562 -9.277344 C 8.203125 -9.246094 8.398438 -9.179688 8.59375 -9.148438 C 10.484375 -8.691406 12.339844 -9.050781 14.164062 -9.507812 C 14.554688 -9.605469 14.652344 -9.800781 14.554688 -10.191406 C 14.488281 -10.546875 14.226562 -10.582031 13.933594 -10.515625 C 13.578125 -10.417969 13.21875 -10.386719 12.859375 -10.289062 C 10.582031 -9.703125 8.757812 -10.449219 7.164062 -12.046875 C 6.902344 -12.308594 6.640625 -12.566406 6.382812 -12.828125 C 6.054688 -13.1875 5.699219 -13.511719 5.308594 -13.804688 C 4.332031 -14.519531 3.582031 -14.519531 2.636719 -13.773438 C 2.050781 -13.347656 1.628906 -12.796875 1.238281 -12.210938 C -0.03125 -10.253906 -0.683594 -8.105469 -0.878906 -5.796875 C -1.007812 -4.527344 -0.8125 -3.289062 -0.226562 -2.148438 C 0.324219 -1.074219 1.140625 -0.324219 2.3125 -0.0664062 C 4.625 0.488281 6.382812 -0.421875 7.292969 -2.605469 C 8.105469 -4.625 8.398438 -6.675781 7.847656 -8.824219 C 7.8125 -8.921875 7.847656 -9.050781 7.8125 -9.214844 C 7.945312 -9.246094 7.945312 -9.277344 7.976562 -9.277344 Z M 4.65625 -11.394531 C 6.382812 -8.53125 6.738281 -5.535156 5.273438 -2.472656 C 5.046875 -2.050781 4.820312 -1.660156 4.460938 -1.335938 C 4.039062 -0.945312 3.644531 -0.976562 3.289062 -1.464844 C 3.058594 -1.757812 2.960938 -2.082031 2.832031 -2.441406 C 2.441406 -3.839844 2.441406 -5.242188 2.636719 -6.640625 C 2.832031 -7.945312 3.058594 -9.246094 3.484375 -10.484375 C 3.644531 -10.972656 3.839844 -11.460938 4.167969 -11.851562 C 4.429688 -11.753906 4.558594 -11.558594 4.65625 -11.394531 Z M 4.65625 -11.394531 "/></g></g></g><g fill="#000000" fill-opacity="1"><g transform="translate(290.845833, 297.601944)"><g><path d="M 1.628906 -1.757812 C 1.660156 -1.171875 2.246094 -0.75 2.929688 -0.78125 C 3.515625 -0.78125 3.875 -1.171875 3.839844 -1.789062 C 3.839844 -2.410156 3.351562 -2.863281 2.734375 -2.832031 C 2.082031 -2.832031 1.5625 -2.3125 1.628906 -1.757812 Z M 1.628906 -1.757812 "/></g></g></g></svg>